# xmcd
#
# Track frame offsets: 
#        150
#        15856
#        29111
#        45160
#        59403
#        71632
#        86729
#        101331
#        113240
#        129322
#        142883
#        159448
#        170779
#        190523
#        205336
#        220269
#        235737
#        251733
#        268544
#        284503
#        302209
#        315385
#
# Disc length: 4441 seconds
#
# Revision: 1
# Processed by: cddbd v1.5.2PL0 Copyright (c) Steve Scherf et al.
# Submitted via: ExactAudioCopyFreeDBPlugin 1.0
#
DISCID=34115716
DTITLE=Jools Holland - Jools and Ruby {EastWest,0825646862993}
DYEAR=2015
DGENRE=Soul
TTITLE0=Peace In The Valley
TTITLE1=Roll Out Of The Hole
TTITLE2=The Informer (Ash Howes Mix)
TTITLE3=Pray Have Mercy
TTITLE4=Christmas Song
TTITLE5=Same Old Heart
TTITLE6=Remember Me
TTITLE7=Honey Hush
TTITLE8=Boring
TTITLE9=My Country Man
TTITLE10=When I Get Home
TTITLE11=Jumpin' At The Jubilee
TTITLE12=Love Made Them Do That
TTITLE13=To Love A Child
TTITLE14=This Train
TTITLE15=You Are So Beautiful
TTITLE16=Count Me In
TTITLE17=Nobody But You
TTITLE18=Get Away Jordan
TTITLE19=I Still Went Wrong
TTITLE20=Jumpin' In The Morning
TTITLE21=Precious Lord
EXTD=
EXTT0=
EXTT1=
EXTT2=
EXTT3=
EXTT4=
EXTT5=
EXTT6=
EXTT7=
EXTT8=
EXTT9=
EXTT10=
EXTT11=
EXTT12=
EXTT13=
EXTT14=
EXTT15=
EXTT16=
EXTT17=
EXTT18=
EXTT19=
EXTT20=
EXTT21=
PLAYORDER=
